<svg height="512" viewBox="0 0 512 512" width="512" xmlns="http://www.w3.org/2000/svg"><g id="Flat_final" data-name="Flat final"><path d="m135.228 310a109.99 109.99 0 1 1 70.518 25.578 109.755 109.755 0 0 1 -70.518-25.578" fill="#f9ae00"/><path d="m438.935 338.585a85.6 85.6 0 0 0 -158.163-64.635 65.622 65.622 0 0 0 -95.433 39.313 85.985 85.985 0 1 0 -22.813 168.891h267.4a72.067 72.067 0 0 0 9.01-143.569z" fill="#80cdf6"/></g><g id="Layer_2" data-name="Layer 2"><path d="m113.989 296.248a10 10 0 0 0 8.328-15.523 100 100 0 1 1 180.954-77.3 10 10 0 0 0 19.508-4.412 120 120 0 1 0 -217.135 92.751 9.988 9.988 0 0 0 8.345 4.484z"/><path d="m205.746 77.478a10 10 0 0 0 10-10v-37.632a10 10 0 0 0 -20 0v37.632a10 10 0 0 0 10 10z"/><path d="m118.029 93.661a10 10 0 0 0 17.321-10l-18.817-32.59a10 10 0 0 0 -17.32 10z"/><path d="m31.226 136.379 32.589 18.821a10 10 0 1 0 10-17.32l-32.589-18.821a10 10 0 1 0 -10 17.32z"/><path d="m57.632 225.592a10 10 0 0 0 -10-10h-37.632a10 10 0 0 0 0 20h37.632a10 10 0 0 0 10-10z"/><path d="m77.476 299.649a10 10 0 0 0 -13.661-3.66l-32.589 18.816a10 10 0 1 0 10 17.32l32.589-18.815a10 10 0 0 0 3.661-13.661z"/><path d="m342.688 156.536a9.953 9.953 0 0 0 4.99-1.341l32.59-18.816a10 10 0 1 0 -10-17.32l-32.59 18.816a10 10 0 0 0 5.01 18.661z"/><path d="m279.8 97.321a10 10 0 0 0 13.66-3.66l18.815-32.59a10 10 0 0 0 -17.32-10l-18.815 32.59a10 10 0 0 0 3.66 13.66z"/><path d="m451.39 330.863a95.591 95.591 0 0 0 -174.822-70 75.622 75.622 0 0 0 -97.7 40.724 95.982 95.982 0 1 0 -16.339 190.564h267.4a82.074 82.074 0 0 0 21.461-161.288zm-21.465 141.291h-267.4a75.978 75.978 0 1 1 20.165-149.247 10 10 0 0 0 12.274-6.93 55.623 55.623 0 0 1 80.884-33.324 10 10 0 0 0 13.926-4.348 75.6 75.6 0 0 1 139.688 57.078 10 10 0 0 0 8.235 13.124 62.067 62.067 0 0 1 -7.772 123.647z"/></g></svg>