<svg height="511pt" viewBox="-4 0 511 511.99988" width="511pt" xmlns="http://www.w3.org/2000/svg"><path d="m307.632812 59.71875-17.0625 8.53125h-76.785156l-8.53125-8.53125 12.066406-36.199219c2.820313-8.472656 11.695313-13.339843 20.355469-11.15625l10.519531 2.625c5.433594 1.367188 11.117188 1.367188 16.550782 0l10.46875-2.625c8.648437-2.167969 17.511718 2.695313 20.328125 11.15625zm0 0" fill="#e88623"/><path d="m462.90625 238.4375-14.503906-2.902344 18.886718-18.886718c3.335938-3.332032 3.335938-8.734376.003907-12.066407-3.328125-3.335937-8.730469-3.335937-12.066407-.007812l-18.898437 18.898437-2.898437-14.503906c-.941407-4.617188-5.445313-7.597656-10.0625-6.65625-4.597657.933594-7.578126 5.40625-6.667969 10.011719l5.117187 25.679687-63.132812 63.132813c-3.328125 3.332031-3.328125 8.734375.003906 12.066406 3.335938 3.332031 8.738281 3.328125 12.070312-.003906l63.132813-63.132813 25.6875 5.117188c.5625.117187 1.132813.175781 1.707031.171875 4.710938.027343 8.554688-3.769531 8.582032-8.480469.027343-4.09375-2.859376-7.625-6.875-8.421875zm0 0" fill="#834b10"/><path d="m88.433594 237.96875 5.117187-25.679688c.914063-4.621093-2.09375-9.109374-6.714843-10.023437-4.605469-.910156-9.078126 2.070313-10.011719 6.671875l-2.902344 14.503906-18.871094-18.863281c-3.335937-3.335937-8.738281-3.335937-12.074219 0-3.332031 3.332031-3.332031 8.738281 0 12.070313l18.898438 18.890624-14.503906 2.898438c-4.621094.914062-7.628906 5.402344-6.714844 10.023438.792969 4.015624 4.328125 6.902343 8.421875 6.878906.574219 0 1.144531-.054688 1.707031-.171875l25.679688-5.121094 63.132812 63.132813c3.386719 3.277343 8.789063 3.179687 12.0625-.207032 3.191406-3.304687 3.191406-8.546875 0-11.855468zm0 0" fill="#834b10"/><path d="m341.757812 179.160156c0 47.117188-38.195312 85.316406-85.3125 85.316406-47.121093 0-85.316406-38.199218-85.316406-85.316406 0-47.117187 38.195313-85.3125 85.316406-85.3125 47.117188 0 85.3125 38.195313 85.3125 85.3125zm0 0" fill="#ebebeb"/><path d="m401.480469 358.320312c0 80.101563-64.9375 145.035157-145.035157 145.035157-80.101562 0-145.035156-64.933594-145.035156-145.035157 0-80.097656 64.933594-145.035156 145.035156-145.035156 80.097657 0 145.035157 64.9375 145.035157 145.035156zm0 0" fill="#ebebeb"/><path d="m300.101562 110.910156h-87.3125c-14.691406 0-27.730468-9.398437-32.378906-23.335937l-5.535156-16.625c-1.488281-4.472657.925781-9.304688 5.398438-10.792969.867187-.289062 1.773437-.4375 2.6875-.4375h146.964843c4.710938.003906 8.527344 3.828125 8.523438 8.539062 0 .914063-.148438 1.820313-.4375 2.6875l-5.535157 16.628907c-4.644531 13.9375-17.6875 23.335937-32.375 23.335937zm0 0" fill="#fd9226"/><g fill="#985713"><path d="m256.445312 328.460938c-7.070312 0-12.796874-5.730469-12.796874-12.796876 0-7.066406 5.726562-12.796874 12.796874-12.796874 7.066407 0 12.796876 5.730468 12.796876 12.796874 0 7.066407-5.730469 12.796876-12.796876 12.796876zm0 0"/><path d="m256.445312 383.914062c-7.070312 0-12.796874-5.726562-12.796874-12.796874 0-7.066407 5.726562-12.796876 12.796874-12.796876 7.066407 0 12.796876 5.730469 12.796876 12.796876 0 7.070312-5.730469 12.796874-12.796876 12.796874zm0 0"/><path d="m256.445312 435.105469c-7.070312 0-12.796874-5.730469-12.796874-12.796875 0-7.070313 5.726562-12.796875 12.796874-12.796875 7.066407 0 12.796876 5.726562 12.796876 12.796875 0 7.066406-5.730469 12.796875-12.796876 12.796875zm0 0"/></g><path d="m273.507812 170.628906c0 9.425782-7.640624 17.0625-17.0625 17.0625-9.425781 0-17.0625-7.636718-17.0625-17.0625 0-9.421875 7.636719-17.0625 17.0625-17.0625 9.421876 0 17.0625 7.640625 17.0625 17.0625zm0 0" fill="#fd9226"/><path d="m205.253906 332.726562-25.59375-17.0625-25.59375 17.0625v-76.78125h51.1875zm0 0" fill="#b6534f"/><path d="m307.632812 170.628906c-4.710937 0-8.53125-3.820312-8.53125-8.53125v-8.53125c0-4.710937 3.820313-8.53125 8.53125-8.53125 4.710938 0 8.53125 3.820313 8.53125 8.53125v8.53125c0 4.710938-3.820312 8.53125-8.53125 8.53125zm0 0" fill="#a45e14"/><path d="m205.253906 170.628906c-4.710937 0-8.53125-3.820312-8.53125-8.53125v-8.53125c0-4.710937 3.820313-8.53125 8.53125-8.53125 4.710938 0 8.53125 3.820313 8.53125 8.53125v8.53125c0 4.710938-3.816406 8.53125-8.53125 8.53125zm0 0" fill="#a45e14"/><path d="m256.445312 213.285156c-10.082031 0-19.929687-2.996094-28.308593-8.597656l-2.015625-1.332031c-3.921875-2.609375-4.988282-7.90625-2.378906-11.832031 2.609374-3.925782 7.910156-4.992188 11.832031-2.378907l2.015625 1.335938c11.402344 7.648437 26.296875 7.648437 37.699218 0l2.023438-1.347657c3.925781-2.609374 9.222656-1.542968 11.832031 2.382813s1.546875 9.222656-2.378906 11.832031l-2.023437 1.339844c-8.375 5.601562-18.222657 8.59375-28.296876 8.597656zm0 0" fill="#ffb1b5"/><path d="m162.597656 230.351562h187.691406c9.425782 0 17.0625 7.636719 17.0625 17.0625 0 9.421876-7.636718 17.0625-17.0625 17.0625h-187.691406c-9.421875 0-17.0625-7.640624-17.0625-17.0625 0-9.425781 7.640625-17.0625 17.0625-17.0625zm0 0" fill="#ea6b65"/><path d="m486.792969 42.65625c0 9.425781-7.640625 17.0625-17.0625 17.0625s-17.0625-7.636719-17.0625-17.0625c0-9.421875 7.640625-17.0625 17.0625-17.0625s17.0625 7.640625 17.0625 17.0625zm0 0" fill="#ebebeb"/><path d="m68.75 25.59375c0 9.425781-7.636719 17.0625-17.0625 17.0625-9.421875 0-17.0625-7.636719-17.0625-17.0625 0-9.421875 7.640625-17.0625 17.0625-17.0625 9.425781 0 17.0625 7.640625 17.0625 17.0625zm0 0" fill="#dbdbdb"/><path d="m418.542969 119.441406c0 9.421875-7.640625 17.0625-17.0625 17.0625-9.425781 0-17.066407-7.640625-17.066407-17.0625 0-9.425781 7.640626-17.0625 17.066407-17.0625 9.421875 0 17.0625 7.636719 17.0625 17.0625zm0 0" fill="#dbdbdb"/><path d="m137.003906 136.503906c0 9.421875-7.640625 17.0625-17.0625 17.0625-9.425781 0-17.0625-7.640625-17.0625-17.0625 0-9.425781 7.636719-17.0625 17.0625-17.0625 9.421875 0 17.0625 7.636719 17.0625 17.0625zm0 0" fill="#ebebeb"/><path d="m495.324219 324.195312c0 14.136719-11.457031 25.59375-25.59375 25.59375s-25.59375-11.457031-25.59375-25.59375c0-14.136718 11.457031-25.59375 25.59375-25.59375s25.59375 11.457032 25.59375 25.59375zm0 0" fill="#ebebeb"/><path d="m60.21875 358.320312c0 14.136719-11.457031 25.59375-25.59375 25.59375-14.132812 0-25.59375-11.457031-25.59375-25.59375 0-14.132812 11.460938-25.59375 25.59375-25.59375 14.136719 0 25.59375 11.460938 25.59375 25.59375zm0 0" fill="#dbdbdb"/><path d="m256.445312 302.867188c-7.070312 0-12.796874 5.730468-12.796874 12.796874 0 7.066407 5.726562 12.796876 12.796874 12.796876 7.066407 0 12.796876-5.730469 12.796876-12.796876 0-7.066406-5.730469-12.796874-12.796876-12.796874zm0 17.0625c-2.355468 0-4.265624-1.910157-4.265624-4.265626 0-2.355468 1.910156-4.265624 4.265624-4.265624 2.355469 0 4.265626 1.910156 4.265626 4.265624 0 2.355469-1.910157 4.265626-4.265626 4.265626zm0 0"/><path d="m256.445312 358.320312c-7.070312 0-12.796874 5.730469-12.796874 12.796876 0 7.070312 5.726562 12.796874 12.796874 12.796874 7.066407 0 12.796876-5.726562 12.796876-12.796874 0-7.066407-5.730469-12.796876-12.796876-12.796876zm0 17.0625c-2.355468 0-4.265624-1.90625-4.265624-4.265624 0-2.355469 1.910156-4.265626 4.265624-4.265626 2.355469 0 4.265626 1.910157 4.265626 4.265626 0 2.359374-1.910157 4.265624-4.265626 4.265624zm0 0"/><path d="m256.445312 409.511719c-7.070312 0-12.796874 5.726562-12.796874 12.796875 0 7.066406 5.726562 12.796875 12.796874 12.796875 7.066407 0 12.796876-5.730469 12.796876-12.796875 0-7.070313-5.730469-12.796875-12.796876-12.796875zm0 17.0625c-2.355468 0-4.265624-1.910157-4.265624-4.265625 0-2.355469 1.910156-4.265625 4.265624-4.265625 2.355469 0 4.265626 1.910156 4.265626 4.265625 0 2.355468-1.910157 4.265625-4.265626 4.265625zm0 0"/><path d="m256.445312 187.691406c14.132813 0 25.59375-11.457031 25.59375-25.59375 0-14.136718-11.460937-25.59375-25.59375-25.59375-14.136718 0-25.597656 11.457032-25.597656 25.59375 0 14.136719 11.460938 25.59375 25.597656 25.59375zm0-34.125c4.710938 0 8.53125 3.820313 8.53125 8.53125 0 4.710938-3.820312 8.53125-8.53125 8.53125-4.714843 0-8.53125-3.820312-8.53125-8.53125 0-4.710937 3.816407-8.53125 8.53125-8.53125zm0 0"/><path d="m459.492188 255.167969c.5625.117187 1.132812.175781 1.707031.171875 4.710937.027344 8.554687-3.769532 8.582031-8.480469.027344-4.09375-2.859375-7.628906-6.875-8.421875l-14.503906-2.902344 18.886718-18.886718c3.335938-3.332032 3.335938-8.734376.003907-12.066407-3.328125-3.335937-8.730469-3.335937-12.066407-.003906l-18.898437 18.894531-2.898437-14.503906c-.941407-4.617188-5.445313-7.597656-10.0625-6.65625-4.597657.933594-7.578126 5.40625-6.667969 10.011719l5.117187 25.679687-36.683594 36.683594c-3.652343-5.546875-7.65625-10.859375-11.988281-15.894531 1.792969-3.527344 2.730469-7.425781 2.742188-11.378907 0-14.136718-11.460938-25.597656-25.597657-25.597656h-10.238281c18.5-36.242187 11.503907-80.28125-17.316406-109.003906 8.386719-5.210938 14.695313-13.179688 17.839844-22.542969l5.535156-16.617187c2.984375-8.9375-1.847656-18.605469-10.785156-21.585938-1.742188-.582031-3.5625-.878906-5.398438-.878906h-16.140625l-10.128906-30.371094c-4.273438-12.648437-17.523438-19.917968-30.492188-16.730468l-10.507812 2.636718c-4.082031 1.007813-8.34375 1.007813-12.421875 0l-10.511719-2.636718c-12.96875-3.199219-26.222656 4.074218-30.492187 16.730468l-10.125 30.371094h-16.144531c-9.421876-.011719-17.070313 7.617188-17.085938 17.039062-.003906 1.84375.292969 3.675782.878906 5.425782l5.542969 16.621094c3.125 9.339843 9.398437 17.308593 17.746094 22.539062-28.75 28.765625-35.699219 72.78125-17.207031 109.007812h-10.238282c-14.136718 0-25.59375 11.457032-25.59375 25.59375.023438 3.9375.96875 7.8125 2.753906 11.320313-4.765624 5.511719-9.136718 11.351563-13.078124 17.480469l-38.246094-38.246094 5.117187-25.679688c.914063-4.621093-2.089843-9.109374-6.714843-10.023437-4.605469-.910156-9.078126 2.070313-10.011719 6.671875l-2.902344 14.503906-18.871094-18.863281c-3.335937-3.335937-8.738281-3.335937-12.074219 0-3.332031 3.332031-3.332031 8.738281 0 12.070313l18.898438 18.890624-14.503906 2.898438c-4.621094.914062-7.628906 5.402344-6.714844 10.023438.792969 4.015624 4.328125 6.902343 8.421875 6.878906.574219 0 1.144531-.054688 1.707031-.171875l25.679688-5.121094 41.648437 41.730469c-36.792969 76.414062-4.675781 168.1875 71.742188 204.984375 76.414062 36.792969 168.191406 4.675781 204.984375-71.742188 20.585937-42.75 20.25-92.613281-.902344-135.085937l39.902344-39.910156zm-234.078126-228.949219c1.445313-4.203125 5.84375-6.617188 10.160157-5.582031l10.53125 2.636719c6.789062 1.699218 13.894531 1.699218 20.6875 0l10.519531-2.636719c4.324219-1.078125 8.75 1.351562 10.160156 5.582031l8.320313 24.96875h-78.695313zm-36.90625 58.652344-5.546874-16.621094h146.957031l-5.539063 16.621094c-3.480468 10.453125-13.261718 17.503906-24.277344 17.507812h-87.3125c-2.308593.003906-4.601562-.308594-6.824218-.921875-8.21875-2.277343-14.765625-8.496093-17.457032-16.585937zm20.039063 34.289062c1.410156.136719 2.816406.28125 4.265625.28125h87.285156c1.382813 0 2.730469-.195312 4.089844-.324218 31.386719 24.777343 38.335938 69.578124 15.925781 102.699218h-127.460937c-22.226563-33.140625-15.3125-77.789062 15.894531-102.65625zm-45.949219 119.722656h187.691406c4.714844 0 8.53125 3.816407 8.53125 8.53125 0 4.710938-3.816406 8.53125-8.53125 8.53125h-187.691406c-4.710937 0-8.53125-3.820312-8.53125-8.53125 0-4.714843 3.820313-8.53125 8.53125-8.53125zm34.125 34.125v43.78125l-12.328125-8.222656c-2.867187-1.914062-6.601562-1.914062-9.46875 0l-12.328125 8.222656v-43.78125zm59.722656 221.816407c-75.304687.074219-136.410156-60.914063-136.484374-136.21875-.027344-28.566407 8.917968-56.417969 25.574218-79.625v53.746093c0 4.710938 3.820313 8.53125 8.53125 8.53125 1.683594.003907 3.332032-.496093 4.734375-1.433593l20.859375-13.921875 20.859375 13.90625c3.921875 2.613281 9.21875 1.558594 11.832031-2.363282.933594-1.394531 1.433594-3.039062 1.433594-4.71875v-59.71875h136.503906c3.660157-.015624 7.269532-.816406 10.589844-2.355468 48.511719 57.582031 41.160156 143.589844-16.425781 192.101562-24.625 20.75-55.804687 32.113282-88.007813 32.070313zm0 0"/><path d="m307.632812 170.628906c4.710938 0 8.53125-3.820312 8.53125-8.53125v-8.53125c0-4.710937-3.820312-8.53125-8.53125-8.53125-4.710937 0-8.53125 3.820313-8.53125 8.53125v8.53125c0 4.710938 3.820313 8.53125 8.53125 8.53125zm0 0"/><path d="m205.253906 170.628906c4.710938 0 8.53125-3.820312 8.53125-8.53125v-8.53125c0-4.710937-3.820312-8.53125-8.53125-8.53125-4.710937 0-8.53125 3.820313-8.53125 8.53125v8.53125c0 4.710938 3.820313 8.53125 8.53125 8.53125zm0 0"/><path d="m228.136719 204.660156c17.128906 11.460938 39.476562 11.460938 56.605469 0l2.023437-1.339844c3.925781-2.609374 4.992187-7.90625 2.378906-11.832031-2.609375-3.925781-7.90625-4.992187-11.832031-2.378906l-2.023438 1.347656c-11.402343 7.648438-26.296874 7.648438-37.699218 0l-2.015625-1.339843c-3.921875-2.609376-9.222657-1.542969-11.832031 2.378906-2.609376 3.925781-1.542969 9.222656 2.382812 11.835937zm0 0"/><path d="m469.730469 68.25c14.136719 0 25.59375-11.457031 25.59375-25.59375 0-14.132812-11.457031-25.59375-25.59375-25.59375s-25.59375 11.460938-25.59375 25.59375c0 14.136719 11.457031 25.59375 25.59375 25.59375zm0-34.125c4.710937 0 8.53125 3.820312 8.53125 8.53125 0 4.714844-3.820313 8.53125-8.53125 8.53125-4.710938 0-8.53125-3.816406-8.53125-8.53125 0-4.710938 3.820312-8.53125 8.53125-8.53125zm0 0"/><path d="m51.6875 51.1875c14.136719 0 25.597656-11.457031 25.597656-25.59375 0-14.132812-11.460937-25.59375-25.597656-25.59375-14.132812 0-25.59375 11.460938-25.59375 25.59375 0 14.136719 11.460938 25.59375 25.59375 25.59375zm0-34.125c4.714844 0 8.53125 3.820312 8.53125 8.53125s-3.816406 8.53125-8.53125 8.53125c-4.710938 0-8.53125-3.820312-8.53125-8.53125s3.820312-8.53125 8.53125-8.53125zm0 0"/><path d="m401.480469 93.847656c-14.136719 0-25.597657 11.457032-25.597657 25.59375 0 14.132813 11.460938 25.59375 25.597657 25.59375 14.132812 0 25.59375-11.460937 25.59375-25.59375 0-14.136718-11.460938-25.59375-25.59375-25.59375zm0 34.125c-4.714844 0-8.53125-3.820312-8.53125-8.53125 0-4.710937 3.816406-8.53125 8.53125-8.53125 4.710937 0 8.53125 3.820313 8.53125 8.53125 0 4.710938-3.820313 8.53125-8.53125 8.53125zm0 0"/><path d="m94.347656 136.503906c0 14.136719 11.457032 25.59375 25.59375 25.59375 14.132813 0 25.59375-11.457031 25.59375-25.59375 0-14.136718-11.460937-25.59375-25.59375-25.59375-14.136718 0-25.59375 11.457032-25.59375 25.59375zm34.125 0c0 4.710938-3.820312 8.53125-8.53125 8.53125-4.710937 0-8.53125-3.820312-8.53125-8.53125 0-4.710937 3.820313-8.53125 8.53125-8.53125 4.710938 0 8.53125 3.820313 8.53125 8.53125zm0 0"/><path d="m469.730469 290.070312c-18.847657 0-34.125 15.277344-34.125 34.125 0 18.847657 15.277343 34.125 34.125 34.125 18.847656 0 34.125-15.277343 34.125-34.125 0-18.847656-15.277344-34.125-34.125-34.125zm0 51.1875c-9.421875 0-17.0625-7.636718-17.0625-17.0625 0-9.421874 7.640625-17.0625 17.0625-17.0625s17.0625 7.640626 17.0625 17.0625c0 9.425782-7.640625 17.0625-17.0625 17.0625zm0 0"/><path d="m34.625 324.195312c-18.847656 0-34.125 15.277344-34.125 34.125 0 18.847657 15.277344 34.128907 34.125 34.128907s34.125-15.28125 34.125-34.128907c0-18.847656-15.277344-34.125-34.125-34.125zm0 51.1875c-9.421875 0-17.0625-7.636718-17.0625-17.0625 0-9.421874 7.640625-17.0625 17.0625-17.0625 9.425781 0 17.0625 7.640626 17.0625 17.0625 0 9.425782-7.636719 17.0625-17.0625 17.0625zm0 0"/></svg>